<svg width="1742" height="279" viewBox="0 0 1742 279" fill="none" xmlns="http://www.w3.org/2000/svg">
<circle cx="50" cy="50" r="50" fill="#DBC090"/>
<circle cx="50" cy="185" r="50" fill="#7E7E7E"/>
<circle cx="185" cy="50" r="50" fill="#DDA4A4"/>
<circle cx="185" cy="185" r="50" fill="#2F8DA4"/>
<path d="M426.748 17.35L422.428 41.38H372.478L343.588 205H312.808L341.698 41.38H291.478L295.798 17.35H426.748ZM501.93 53.8C520.47 53.8 535.23 59.02 546.21 69.46C557.37 79.9 562.95 93.94 562.95 111.58C562.95 115.72 562.5 120.67 561.6 126.43C560.88 130.39 559.62 135.25 557.82 141.01H444.15C443.97 142.27 443.88 144.16 443.88 146.68C443.88 157.3 447.12 165.76 453.6 172.06C460.26 178.36 468.9 181.51 479.52 181.51C496.26 181.51 509.13 174.58 518.13 160.72H551.34C544.5 174.4 534.42 185.65 521.1 194.47C507.78 203.11 492.39 207.43 474.93 207.43C462.51 207.43 451.62 205 442.26 200.14C432.9 195.28 425.61 188.35 420.39 179.35C415.17 170.17 412.56 159.46 412.56 147.22C412.56 142 413.1 136.42 414.18 130.48C416.88 115.18 422.37 101.77 430.65 90.25C438.93 78.55 449.19 69.55 461.43 63.25C473.85 56.95 487.35 53.8 501.93 53.8ZM530.82 118.87C531.18 115.63 531.36 113.29 531.36 111.85C531.36 101.95 528.03 94.12 521.37 88.36C514.89 82.6 506.43 79.72 495.99 79.72C485.01 79.72 475.11 83.23 466.29 90.25C457.47 97.27 451.44 106.81 448.2 118.87H530.82ZM567.321 130.48C570.021 115.18 575.421 101.77 583.521 90.25C591.801 78.55 601.971 69.55 614.031 63.25C626.271 56.95 639.501 53.8 653.721 53.8C671.721 53.8 685.851 58.12 696.111 66.76C706.371 75.22 712.221 87.37 713.661 103.21H680.451C679.011 95.83 675.681 90.07 670.461 85.93C665.241 81.79 658.131 79.72 649.131 79.72C636.531 79.72 625.731 84.22 616.731 93.22C607.731 102.04 601.791 114.46 598.911 130.48C598.011 136.24 597.561 140.92 597.561 144.52C597.561 156.4 600.531 165.58 606.471 172.06C612.411 178.36 620.691 181.51 631.311 181.51C649.131 181.51 662.271 173.68 670.731 158.02H703.941C696.921 173.14 686.661 185.2 673.161 194.2C659.841 203.02 644.361 207.43 626.721 207.43C608.001 207.43 593.151 202.12 582.171 191.5C571.191 180.7 565.701 166.12 565.701 147.76C565.701 142.18 566.241 136.42 567.321 130.48ZM816.425 53.8C831.365 53.8 843.335 58.03 852.335 66.49C861.335 74.77 865.835 86.65 865.835 102.13C865.835 106.27 865.385 111.31 864.485 117.25L848.825 205H818.315L833.165 121.84C833.885 116.8 834.245 113.2 834.245 111.04C834.245 101.14 831.455 93.58 825.875 88.36C820.475 83.14 812.915 80.53 803.195 80.53C791.495 80.53 781.595 84.13 773.495 91.33C765.575 98.35 760.535 108.52 758.375 121.84V121.3L743.525 205H712.745L748.115 5.2H778.895L766.745 73.51C773.045 67.21 780.515 62.35 789.155 58.93C797.795 55.51 806.885 53.8 816.425 53.8ZM976.377 53.8C992.037 53.8 1004.46 58.03 1013.64 66.49C1023 74.77 1027.68 86.74 1027.68 102.4C1027.68 106.36 1027.23 111.31 1026.33 117.25L1010.67 205H980.157L995.007 121.84C995.727 116.8 996.087 113.2 996.087 111.04C996.087 101.14 993.297 93.58 987.717 88.36C982.317 83.14 974.757 80.53 965.037 80.53C953.337 80.53 943.437 84.13 935.337 91.33C927.417 98.35 922.377 108.52 920.217 121.84V121.03L905.367 205H874.587L900.777 56.23H931.557L928.587 73.51C934.707 67.39 941.907 62.62 950.187 59.2C958.647 55.6 967.377 53.8 976.377 53.8ZM1101.5 207.43C1088.9 207.43 1077.83 204.82 1068.29 199.6C1058.75 194.38 1051.28 187 1045.88 177.46C1040.66 167.92 1038.05 157.03 1038.05 144.79C1038.05 128.05 1041.92 112.75 1049.66 98.89C1057.58 85.03 1068.38 74.05 1082.06 65.95C1095.92 57.85 1111.31 53.8 1128.23 53.8C1140.83 53.8 1151.99 56.5 1161.71 61.9C1171.43 67.12 1178.99 74.5 1184.39 84.04C1189.97 93.4 1192.76 104.29 1192.76 116.71C1192.76 133.45 1188.71 148.75 1180.61 162.61C1172.51 176.47 1161.53 187.45 1147.67 195.55C1133.81 203.47 1118.42 207.43 1101.5 207.43ZM1105.28 181.51C1115.54 181.51 1124.9 178.63 1133.36 172.87C1142 166.93 1148.75 159.19 1153.61 149.65C1158.47 139.93 1160.9 129.58 1160.9 118.6C1160.9 106.18 1157.39 96.64 1150.37 89.98C1143.35 83.14 1134.53 79.72 1123.91 79.72C1113.47 79.72 1104.11 82.69 1095.83 88.63C1087.73 94.39 1081.34 102.22 1076.66 112.12C1072.16 121.84 1069.91 132.28 1069.91 143.44C1069.91 155.5 1073.15 164.86 1079.63 171.52C1086.29 178.18 1094.84 181.51 1105.28 181.51ZM1261.26 5.2L1225.89 205H1195.11L1230.48 5.2H1261.26ZM1317.87 207.43C1305.27 207.43 1294.2 204.82 1284.66 199.6C1275.12 194.38 1267.65 187 1262.25 177.46C1257.03 167.92 1254.42 157.03 1254.42 144.79C1254.42 128.05 1258.29 112.75 1266.03 98.89C1273.95 85.03 1284.75 74.05 1298.43 65.95C1312.29 57.85 1327.68 53.8 1344.6 53.8C1357.2 53.8 1368.36 56.5 1378.08 61.9C1387.8 67.12 1395.36 74.5 1400.76 84.04C1406.34 93.4 1409.13 104.29 1409.13 116.71C1409.13 133.45 1405.08 148.75 1396.98 162.61C1388.88 176.47 1377.9 187.45 1364.04 195.55C1350.18 203.47 1334.79 207.43 1317.87 207.43ZM1321.65 181.51C1331.91 181.51 1341.27 178.63 1349.73 172.87C1358.37 166.93 1365.12 159.19 1369.98 149.65C1374.84 139.93 1377.27 129.58 1377.27 118.6C1377.27 106.18 1373.76 96.64 1366.74 89.98C1359.72 83.14 1350.9 79.72 1340.28 79.72C1329.84 79.72 1320.48 82.69 1312.2 88.63C1304.1 94.39 1297.71 102.22 1293.03 112.12C1288.53 121.84 1286.28 132.28 1286.28 143.44C1286.28 155.5 1289.52 164.86 1296 171.52C1302.66 178.18 1311.21 181.51 1321.65 181.51ZM1498.15 53.8C1509.67 53.8 1519.48 56.14 1527.58 60.82C1535.86 65.32 1541.8 70.99 1545.4 77.83L1549.18 56.23H1580.23L1553.77 207.43C1551.25 221.11 1546.21 233.26 1538.65 243.88C1531.09 254.68 1521.28 263.14 1509.22 269.26C1497.16 275.38 1483.57 278.44 1468.45 278.44C1455.31 278.44 1443.79 276.28 1433.89 271.96C1423.99 267.82 1416.52 261.79 1411.48 253.87C1406.44 245.95 1404.28 236.59 1405 225.79H1435.51C1436.41 233.53 1440.28 239.74 1447.12 244.42C1453.96 249.28 1462.69 251.71 1473.31 251.71C1485.73 251.71 1496.44 247.93 1505.44 240.37C1514.44 232.81 1520.2 221.83 1522.72 207.43L1527.04 182.59C1520.56 189.61 1512.46 195.55 1502.74 200.41C1493.02 205.09 1482.49 207.43 1471.15 207.43C1459.81 207.43 1449.73 204.91 1440.91 199.87C1432.09 194.83 1425.16 187.72 1420.12 178.54C1415.26 169.18 1412.83 158.47 1412.83 146.41C1412.83 141.01 1413.37 135.52 1414.45 129.94C1417.15 115 1422.55 101.77 1430.65 90.25C1438.93 78.73 1449.01 69.82 1460.89 63.52C1472.77 57.04 1485.19 53.8 1498.15 53.8ZM1536.22 130.48C1536.94 127.06 1537.3 123.37 1537.3 119.41C1537.3 107.35 1533.7 97.9 1526.5 91.06C1519.48 84.04 1510.66 80.53 1500.04 80.53C1492.12 80.53 1484.38 82.51 1476.82 86.47C1469.26 90.25 1462.69 95.92 1457.11 103.48C1451.53 110.86 1447.84 119.68 1446.04 129.94C1445.32 133.36 1444.96 137.05 1444.96 141.01C1444.96 153.25 1448.47 162.97 1455.49 170.17C1462.69 177.19 1471.6 180.7 1482.22 180.7C1490.14 180.7 1497.88 178.72 1505.44 174.76C1513 170.8 1519.57 165.04 1525.15 157.48C1530.73 149.74 1534.42 140.74 1536.22 130.48ZM1623.89 56.23L1645.76 169.63L1709.21 56.23H1741.07L1611.47 274.93H1579.61L1622.54 202.57L1589.6 56.23H1623.89Z" fill="#9E9E9E"/>
</svg>
